<?xml version="1.0" encoding="UTF-8" standalone="no"?><!DOCTYPE svg PUBLIC "-//W3C//DTD SVG 1.1//EN" "http://www.w3.org/Graphics/SVG/1.1/DTD/svg11.dtd"><svg width="100%" height="100%" viewBox="0 0 6992 2530" version="1.1" xmlns="http://www.w3.org/2000/svg" xmlns:xlink="http://www.w3.org/1999/xlink" xml:space="preserve" xmlns:serif="http://www.serif.com/" style="fill-rule:evenodd;clip-rule:evenodd;stroke-linejoin:round;stroke-miterlimit:2;"><g><path d="M0,793.092l536.479,0l-0,607.536l586.218,-0l0,-607.536l538.847,0l0,1736.15l-538.847,0l0,-702.278l-586.218,0l-0,702.278l-536.479,0l-0,-1736.15Z" style="fill-rule:nonzero;"/><path d="M1896.03,793.092l1630.75,0l-0,428.709l-547.137,0l-0,1307.44l-536.479,0l0,-1307.44l-547.137,0l-0,-428.709Z" style="fill-rule:nonzero;"/><path d="M3647.58,793.092l1630.75,0l-0,428.709l-547.138,0l0,1307.44l-536.478,0l-0,-1307.44l-547.137,0l-0,-428.709Z" style="fill-rule:nonzero;"/><path d="M5518.74,793.092l891.763,0c194.222,0 339.691,46.187 436.407,138.561c96.716,92.374 145.074,223.829 145.074,394.365c0,175.273 -52.7,312.255 -158.101,410.945c-105.401,98.69 -266.265,148.035 -482.594,148.035l-293.701,0l-0,644.248l-538.848,0l0,-1736.15Zm538.848,740.175l131.455,-0c103.427,-0 176.063,-17.962 217.907,-53.885c41.845,-35.923 62.767,-81.912 62.767,-137.968c0,-54.477 -18.159,-100.664 -54.477,-138.561c-36.318,-37.897 -104.611,-56.846 -204.88,-56.846l-152.772,0l-0,387.26Z" style="fill-rule:nonzero;"/><path d="M1429.09,0l201.787,0l-50.682,215.051l112.736,-0l50.682,-215.051l202.735,0l-148.92,631.889l-202.735,-0l55.147,-233.998l-112.735,-0l-55.148,233.998l-201.787,-0l148.92,-631.889Zm-11.692,556.1l56.487,-239.682l278.524,0l-56.487,239.682l24.632,0l113.197,-480.311l-24.632,-0l-51.351,217.892l-278.524,0l51.352,-217.892l-24.632,-0l-113.197,480.311l24.631,0Z" style="fill-rule:nonzero;"/><path d="M2071.82,359.997l-111.261,-359.997l224.524,0l41.466,133.578l103.48,-133.578l224.524,0l-280.946,359.997l-64.078,271.892l-201.787,-0l64.078,-271.892Zm67.466,196.103l53.362,-226.419l198.15,-253.892l-29.368,-0l-174.177,224.524l-69.294,-224.524l-28.421,-0l77.531,253.892l-53.361,226.419l25.578,0Z" style="fill-rule:nonzero;"/><path d="M3003.74,240.629c-10.271,43.579 -26.594,80.684 -48.971,111.315c-22.377,30.631 -48.903,55.421 -79.579,74.368c-30.675,18.947 -64.581,32.842 -101.717,41.684c-37.137,8.842 -75.915,13.263 -116.336,13.263l-35.499,150.63l-201.788,-0l148.92,-631.889l201.788,0c40.421,0 77.115,4.421 110.084,13.263c32.968,8.842 60.325,22.737 82.07,41.684c21.745,18.947 36.586,43.736 44.525,74.368c7.939,30.631 6.773,67.736 -3.497,111.314Zm-91.894,0c6.698,-28.42 7.608,-53.052 2.731,-73.894c-4.878,-20.842 -14.596,-37.894 -29.154,-51.157c-14.558,-13.263 -33.214,-23.21 -55.966,-29.842c-22.753,-6.631 -48.34,-9.947 -76.761,-9.947l-107.051,-0l-113.197,480.311l24.631,0l35.5,-150.63l82.42,-0c28.421,-0 55.57,-3.316 81.449,-9.947c25.878,-6.632 49.222,-16.579 70.032,-29.842c20.81,-13.263 38.565,-30.316 53.267,-51.158c14.701,-20.842 25.401,-45.473 32.099,-73.894Zm-26.526,0c-6.401,27.158 -16.496,49.895 -30.286,68.21c-13.79,18.316 -29.845,32.842 -48.165,43.579c-18.319,10.736 -38.301,18.473 -59.943,23.21c-21.642,4.737 -43.832,7.105 -66.569,7.105l-82.42,0l66.981,-284.208l82.42,0c22.737,0 43.81,2.369 63.22,7.106c19.409,4.736 35.744,12.473 49.003,23.21c13.259,10.737 22.467,25.263 27.624,43.578c5.157,18.316 4.535,41.053 -1.865,68.21Zm-187.994,70.105l8.526,-0c26.526,-0 47.082,-6.158 61.669,-18.474c14.587,-12.315 24.485,-29.526 29.694,-51.631c5.21,-22.105 3.424,-39.315 -5.358,-51.631c-8.781,-12.315 -26.435,-18.473 -52.961,-18.473l-8.526,-0l-33.044,140.209Z" style="fill-rule:nonzero;"/><path d="M3107.82,0l372.312,0l-39.072,165.788l-170.525,-0l-16.521,70.105l167.682,-0l-37.062,157.261l-167.683,0l-17.192,72.947l177.156,-0l-39.072,165.788l-378.943,-0l148.92,-631.889Zm177.78,556.1l5.359,-22.737l-189.472,0l48.896,-207.471l179.998,-0l5.358,-22.737l-179.998,0l48.226,-204.63l189.472,0l5.359,-22.736l-214.104,-0l-113.197,480.311l214.103,0Z" style="fill-rule:nonzero;"/><path d="M3643.53,412.101c24.631,0 49.227,-2.526 73.786,-7.579l54.276,151.578l29.368,0l-57.227,-159.156c36.933,-12 68.444,-30.474 94.534,-55.421c26.09,-24.947 43.823,-57.315 53.201,-97.104c6.549,-27.789 6.911,-52.105 1.086,-72.947c-5.825,-20.842 -16.378,-38.368 -31.66,-52.578c-15.283,-14.211 -34.7,-24.948 -58.251,-32.211c-23.551,-7.263 -50.169,-10.894 -79.853,-10.894l-102.314,-0l-113.198,480.311l24.632,0l33.937,-143.999l77.683,0Zm-72.325,-22.736l68.544,-290.84l77.683,0c57.473,0 99.496,12.632 126.068,37.895c26.572,25.263 34.351,61.262 23.336,107.999c-11.014,46.736 -35.724,82.578 -74.13,107.525c-38.405,24.947 -86.344,37.421 -143.817,37.421l-77.684,-0Zm-27.604,-389.365l217.893,0c40.421,-0 76.576,5.368 108.466,16.105c31.891,10.737 58.011,26.526 78.362,47.368c20.351,20.842 34.023,46.579 41.014,77.21c6.991,30.631 5.798,65.841 -3.579,105.63c-7.442,31.579 -18.189,58.421 -32.241,80.526c-14.051,22.105 -28.157,40.421 -42.317,54.947c-16.502,16.421 -33.987,30.315 -52.455,41.684l69.3,208.419l-236.839,-0l-57.004,-160.104l-37.732,160.104l-201.788,-0l148.92,-631.889Zm128.556,310.734l10.421,-0c23.999,-0 45.633,-5.368 64.9,-16.105c19.267,-10.737 31.877,-28.737 37.831,-54c5.954,-25.263 1.828,-43.262 -12.379,-53.999c-14.206,-10.737 -33.309,-16.105 -57.309,-16.105l-10.421,-0l-33.043,140.209Z" style="fill-rule:nonzero;"/><g><path d="M1280.17,40.66c-0,-22.441 -18.219,-40.66 -40.66,-40.66l-726.496,0c-22.441,0 -40.66,18.219 -40.66,40.66c-0,22.441 18.219,40.66 40.66,40.66l726.496,0c22.441,0 40.66,-18.219 40.66,-40.66Z" style="fill:#00a9d3;"/><path d="M1203.6,315.944c-0,-22.441 -18.22,-40.66 -40.66,-40.66l-1122.28,0c-22.441,0 -40.66,18.219 -40.66,40.66c0,22.441 18.219,40.661 40.66,40.661l1122.28,-0c22.44,-0 40.66,-18.22 40.66,-40.661Z" style="fill:#00a9d3;"/><path d="M1119.51,591.229c-0,-22.441 -18.219,-40.661 -40.66,-40.661l-782.232,0c-22.441,0 -40.66,18.22 -40.66,40.661c0,22.441 18.219,40.66 40.66,40.66l782.232,-0c22.441,-0 40.66,-18.219 40.66,-40.66Z" style="fill:#00a9d3;"/></g></g></svg>