<?xml version="1.0" encoding="UTF-8" standalone="no"?>
<!DOCTYPE svg PUBLIC "-//W3C//DTD SVG 1.1//EN" "http://www.w3.org/Graphics/SVG/1.1/DTD/svg11.dtd">
<svg width="100%" height="100%" viewBox="0 0 6470 2439" version="1.1" xmlns="http://www.w3.org/2000/svg" xmlns:xlink="http://www.w3.org/1999/xlink" xml:space="preserve" xmlns:serif="http://www.serif.com/" style="fill-rule:evenodd;clip-rule:evenodd;stroke-linejoin:round;stroke-miterlimit:2;">
    <g transform="matrix(5.55556,0,0,5.55556,-1395.54,-1325.78)">
        <g>
            <g transform="matrix(0.833903,0,0,0.833903,-106.508,74.6443)">
                <g transform="matrix(484.428,0,0,484.428,393,723)">
                    <path d="M0.074,-0.716L0.295,-0.716L0.295,-0.465L0.537,-0.465L0.537,-0.716L0.759,-0.716L0.759,-0L0.537,-0L0.537,-0.29L0.295,-0.29L0.295,-0L0.074,-0L0.074,-0.716Z" style="fill-rule:nonzero;"/>
                </g>
                <g transform="matrix(484.428,0,0,484.428,796.532,723)">
                    <path d="M0.023,-0.716L0.695,-0.716L0.695,-0.539L0.47,-0.539L0.47,-0L0.249,-0L0.249,-0.539L0.023,-0.539L0.023,-0.716Z" style="fill-rule:nonzero;"/>
                </g>
                <g transform="matrix(484.428,0,0,484.428,1146.37,723)">
                    <path d="M0.023,-0.716L0.695,-0.716L0.695,-0.539L0.47,-0.539L0.47,-0L0.249,-0L0.249,-0.539L0.023,-0.539L0.023,-0.716Z" style="fill-rule:nonzero;"/>
                </g>
                <g transform="matrix(484.428,0,0,484.428,1496.21,723)">
                    <path d="M0.072,-0.716L0.44,-0.716C0.52,-0.716 0.58,-0.697 0.62,-0.659C0.66,-0.621 0.68,-0.566 0.68,-0.496C0.68,-0.424 0.658,-0.367 0.615,-0.327C0.571,-0.286 0.505,-0.266 0.416,-0.266L0.294,-0.266L0.294,-0L0.072,-0L0.072,-0.716ZM0.294,-0.411L0.349,-0.411C0.391,-0.411 0.421,-0.418 0.438,-0.433C0.456,-0.448 0.464,-0.467 0.464,-0.49C0.464,-0.512 0.457,-0.531 0.442,-0.547C0.427,-0.563 0.399,-0.57 0.357,-0.57L0.294,-0.57L0.294,-0.411Z" style="fill-rule:nonzero;"/>
                </g>
            </g>
            <g transform="matrix(0.449759,0,-0.105997,0.449759,360.811,33.2967)">
                <g transform="matrix(484.428,0,0,484.428,393,723)">
                    <path d="M0.55,-0.49C0.55,-0.502 0.543,-0.508 0.528,-0.508L0.528,-0.526L0.682,-0.526L0.682,-0.508C0.677,-0.508 0.673,-0.507 0.67,-0.504C0.666,-0.501 0.664,-0.496 0.664,-0.49L0.664,-0.036C0.664,-0.03 0.666,-0.025 0.67,-0.023C0.673,-0.02 0.677,-0.018 0.682,-0.018L0.682,-0L0.528,-0L0.528,-0.018C0.543,-0.018 0.55,-0.024 0.55,-0.036L0.55,-0.224L0.228,-0.224L0.228,-0.036C0.228,-0.03 0.23,-0.025 0.234,-0.023C0.237,-0.02 0.241,-0.018 0.246,-0.018L0.246,-0L0.095,-0L0.095,-0.018C0.108,-0.018 0.114,-0.024 0.114,-0.036L0.114,-0.49C0.114,-0.502 0.108,-0.508 0.095,-0.508L0.095,-0.526L0.246,-0.526L0.246,-0.508C0.241,-0.508 0.237,-0.507 0.234,-0.504C0.23,-0.501 0.228,-0.496 0.228,-0.49L0.228,-0.32L0.55,-0.32L0.55,-0.49Z" style="fill-rule:nonzero;"/>
                </g>
                <g transform="matrix(484.428,0,0,484.428,769.885,723)">
                    <path d="M0.219,-0.526L0.219,-0.508C0.213,-0.508 0.207,-0.507 0.202,-0.506C0.197,-0.504 0.194,-0.5 0.194,-0.493C0.194,-0.489 0.199,-0.48 0.209,-0.465C0.218,-0.45 0.23,-0.433 0.243,-0.414C0.256,-0.395 0.269,-0.375 0.283,-0.355C0.297,-0.335 0.308,-0.318 0.317,-0.304L0.434,-0.465C0.439,-0.473 0.444,-0.479 0.447,-0.484C0.45,-0.489 0.452,-0.493 0.452,-0.497C0.452,-0.502 0.449,-0.505 0.443,-0.506C0.436,-0.507 0.43,-0.508 0.425,-0.508L0.425,-0.526L0.6,-0.526L0.6,-0.508C0.595,-0.508 0.59,-0.507 0.585,-0.507C0.58,-0.506 0.576,-0.503 0.571,-0.5C0.566,-0.496 0.56,-0.491 0.555,-0.484C0.549,-0.476 0.542,-0.467 0.534,-0.455L0.364,-0.214L0.364,-0.036C0.364,-0.024 0.372,-0.018 0.387,-0.018L0.387,-0L0.229,-0L0.229,-0.018C0.235,-0.018 0.24,-0.02 0.244,-0.023C0.248,-0.025 0.25,-0.03 0.25,-0.036L0.25,-0.214L0.057,-0.484C0.052,-0.491 0.045,-0.496 0.036,-0.501C0.026,-0.506 0.018,-0.508 0.011,-0.508L0.011,-0.526L0.219,-0.526Z" style="fill-rule:nonzero;"/>
                </g>
                <g transform="matrix(484.428,0,0,484.428,1065.87,723)">
                    <path d="M0.44,-0.306C0.462,-0.306 0.481,-0.31 0.497,-0.319C0.512,-0.328 0.52,-0.345 0.52,-0.37C0.52,-0.395 0.512,-0.412 0.497,-0.421C0.481,-0.43 0.462,-0.434 0.44,-0.434L0.227,-0.434L0.227,-0.306L0.44,-0.306ZM0.076,-0L0.076,-0.018C0.101,-0.018 0.113,-0.024 0.113,-0.036L0.113,-0.49C0.113,-0.502 0.101,-0.508 0.076,-0.508L0.076,-0.526L0.428,-0.526C0.492,-0.526 0.542,-0.514 0.579,-0.491C0.616,-0.467 0.634,-0.427 0.634,-0.37C0.634,-0.313 0.616,-0.273 0.579,-0.25C0.542,-0.226 0.492,-0.214 0.428,-0.214L0.227,-0.214L0.227,-0.036C0.227,-0.024 0.238,-0.018 0.259,-0.018L0.259,-0L0.076,-0Z" style="fill-rule:nonzero;"/>
                </g>
                <g transform="matrix(484.428,0,0,484.428,1388.98,723)">
                    <path d="M0.58,-0.418C0.58,-0.425 0.577,-0.431 0.572,-0.435C0.566,-0.438 0.556,-0.44 0.542,-0.44L0.218,-0.44L0.218,-0.316L0.414,-0.316C0.427,-0.316 0.438,-0.318 0.445,-0.322C0.452,-0.325 0.456,-0.335 0.456,-0.35L0.474,-0.35L0.474,-0.194L0.456,-0.194C0.456,-0.209 0.452,-0.219 0.445,-0.224C0.438,-0.228 0.427,-0.23 0.414,-0.23L0.218,-0.23L0.218,-0.092L0.552,-0.092C0.562,-0.092 0.57,-0.094 0.577,-0.099C0.583,-0.104 0.586,-0.11 0.586,-0.118L0.604,-0.118L0.604,0.019L0.586,0.019C0.586,0.009 0.583,0.003 0.577,0.002C0.57,0.001 0.562,-0 0.552,-0L0.086,-0L0.086,-0.018C0.091,-0.018 0.095,-0.02 0.099,-0.023C0.102,-0.025 0.104,-0.03 0.104,-0.036L0.104,-0.49C0.104,-0.496 0.102,-0.501 0.099,-0.504C0.095,-0.507 0.091,-0.508 0.086,-0.508L0.086,-0.526L0.542,-0.526C0.556,-0.526 0.566,-0.528 0.572,-0.533C0.577,-0.537 0.58,-0.543 0.58,-0.55L0.598,-0.55L0.598,-0.418L0.58,-0.418Z" style="fill-rule:nonzero;"/>
                </g>
                <g transform="matrix(484.428,0,0,484.428,1712.1,723)">
                    <path d="M0.396,-0.292C0.42,-0.292 0.44,-0.294 0.456,-0.298C0.472,-0.301 0.485,-0.306 0.494,-0.313C0.503,-0.32 0.51,-0.328 0.514,-0.337C0.518,-0.346 0.52,-0.355 0.52,-0.366C0.52,-0.377 0.518,-0.387 0.514,-0.396C0.51,-0.405 0.503,-0.412 0.494,-0.419C0.485,-0.426 0.472,-0.431 0.456,-0.435C0.44,-0.438 0.42,-0.44 0.396,-0.44L0.223,-0.44L0.223,-0.292L0.396,-0.292ZM0.422,-0.526C0.454,-0.526 0.483,-0.523 0.509,-0.518C0.535,-0.512 0.557,-0.503 0.576,-0.491C0.595,-0.478 0.609,-0.462 0.619,-0.443C0.629,-0.423 0.634,-0.399 0.634,-0.37C0.634,-0.326 0.621,-0.292 0.595,-0.269C0.569,-0.246 0.534,-0.23 0.49,-0.222L0.623,-0.032C0.628,-0.025 0.633,-0.021 0.64,-0.02C0.646,-0.019 0.652,-0.018 0.657,-0.018L0.657,-0L0.47,-0L0.47,-0.018C0.476,-0.018 0.481,-0.019 0.486,-0.021C0.49,-0.023 0.492,-0.026 0.492,-0.029C0.492,-0.032 0.491,-0.036 0.488,-0.041C0.485,-0.045 0.481,-0.051 0.476,-0.058L0.366,-0.214L0.223,-0.214L0.223,-0.036C0.223,-0.03 0.225,-0.025 0.23,-0.023C0.234,-0.02 0.242,-0.018 0.253,-0.018L0.253,-0L0.08,-0L0.08,-0.018C0.099,-0.018 0.109,-0.024 0.109,-0.036L0.109,-0.49C0.109,-0.502 0.099,-0.508 0.08,-0.508L0.08,-0.526L0.422,-0.526Z" style="fill-rule:nonzero;"/>
                </g>
            </g>
            <g transform="matrix(1.85483,0,0,1.91415,-607.027,-314.301)">
                <g transform="matrix(0.671165,0,0,0.640095,219.804,103.966)">
                    <path d="M547,296.435C547,292.26 543.664,288.87 539.555,288.87L437.643,288.87C433.534,288.87 430.197,292.26 430.197,296.435C430.197,300.61 433.534,304 437.643,304L539.555,304C543.664,304 547,300.61 547,296.435Z" style="fill:rgb(0,204,132);"/>
                </g>
                <g transform="matrix(1,0,0,0.640095,32.5,130.66)">
                    <path d="M547,296.435C547,292.26 544.761,288.87 542.003,288.87L435.195,288.87C432.437,288.87 430.197,292.26 430.197,296.435C430.197,300.61 432.437,304 435.195,304L542.003,304C544.761,304 547,300.61 547,296.435Z" style="fill:rgb(0,204,132);"/>
                </g>
                <g transform="matrix(0.717472,0,0,0.640095,178.882,157.354)">
                    <path d="M547,296.435C547,292.26 543.879,288.87 540.035,288.87L437.162,288.87C433.318,288.87 430.197,292.26 430.197,296.435C430.197,300.61 433.318,304 437.162,304L540.035,304C543.879,304 547,300.61 547,296.435Z" style="fill:rgb(0,204,132);"/>
                </g>
            </g>
        </g>
    </g>
</svg>
